# Blender v2.80 (sub 75) OBJ File: 'aulas2.blend'
# www.blender.org
mtllib aulas2.mtl
v 2.003123 6.297465 -6.636910
v 2.003123 0.019569 -6.636910
v 2.003123 6.297465 6.644332
v 2.003123 0.019569 6.644332
v -0.792880 6.297465 -6.636910
v -0.792880 0.019569 -6.636910
v 2.003123 1.729755 6.644332
v 2.003123 1.729755 -6.636910
v -0.792880 0.019569 -3.164690
v 2.003123 6.297465 -3.164690
v -0.792880 6.297465 -3.164690
v 2.003123 0.019569 -3.164690
v 0.012468 0.019569 -3.164690
v 0.012468 0.019569 6.644332
v 0.012468 6.297465 6.644332
v 0.012468 6.297465 -3.164690
v -0.792880 1.729755 -6.636910
v 2.003123 1.729755 -3.164690
v -0.792880 1.729755 -3.164690
v 0.012468 1.729755 6.644332
v 0.012468 1.729755 -3.164690
v -0.792880 2.404036 -6.636910
v 2.003123 2.404036 6.644332
v 0.012468 2.404036 6.644332
v 2.003123 2.404036 -6.636910
v 2.003123 2.404036 -3.164690
v -0.792880 2.404036 -3.164690
v 0.012468 2.404036 -3.164690
v 0.012468 3.628935 6.644332
v -0.792880 3.628935 -6.636910
v 2.003123 3.628935 6.644332
v 2.003123 3.628935 -6.636910
v 2.003123 3.628935 -3.164690
v -0.792880 3.628935 -3.164690
v 0.012468 3.628935 -3.164690
v 0.012468 4.263258 6.644332
v -0.792880 4.263258 -6.636910
v 2.003123 4.263258 6.644332
v 2.003123 4.263258 -6.636910
v 2.003123 4.263258 -3.164690
v -0.792880 4.263258 -3.164690
v 0.012468 4.263258 -3.164690
v 0.012468 5.457250 6.644332
v -0.792880 5.457250 -6.636910
v 2.003123 5.457250 6.644332
v 2.003123 5.457250 -6.636910
v 2.003123 5.457250 -3.164690
v -0.792880 5.457250 -3.164690
v 0.012468 5.457250 -3.164690
v -0.768523 2.404036 -3.164690
v -0.768523 1.729755 -3.164690
v -0.768523 1.729755 6.644332
v -0.768523 2.404036 6.644332
v -0.768523 4.263258 -3.164690
v -0.768523 3.628935 -3.164690
v -0.768523 3.628935 6.644332
v -0.768523 4.263258 6.644332
v 0.012468 5.457250 6.644332
v 0.012468 5.457250 -3.164690
v -0.767387 5.457250 6.644332
v -0.767387 5.457250 -3.164690
v 0.012468 5.573069 6.644332
v 0.012468 5.573069 -3.164690
v -0.767387 5.573069 6.644332
v -0.767387 5.573069 -3.164690
vt 0.874501 0.904535
vt 0.620428 0.904535
vt 0.620428 0.634845
vt 0.874501 0.634845
vt 0.813405 0.048871
vt 0.813405 0.000000
vt 0.906703 0.000000
vt 0.906703 0.048871
vt 0.356863 0.265682
vt 0.610936 0.265682
vt 0.610936 0.365155
vt 0.356863 0.365155
vt 0.906703 0.365155
vt 0.906703 0.000000
vt 1.000000 0.000000
vt 1.000000 0.365155
vt 0.620428 0.365155
vt 0.874501 0.365155
vt 0.874501 0.634845
vt 0.620428 0.634845
vt 0.967798 0.365155
vt 0.967798 0.730310
vt 0.874501 0.730310
vt 0.874501 0.365155
vt 0.356863 0.414027
vt 0.356863 0.365155
vt 0.620428 0.365155
vt 0.620428 0.414027
vt 0.813405 0.265682
vt 0.813405 0.365155
vt 0.710616 0.365155
vt 0.710616 0.265682
vt 0.356863 0.730310
vt 0.356863 0.630837
vt 0.620428 0.630837
vt 0.620428 0.730310
vt 0.000000 0.414027
vt 0.000000 0.365155
vt 0.356862 0.365155
vt 0.356862 0.414027
vt 0.356862 0.483475
vt 0.356862 0.520371
vt 0.356862 0.591617
vt 0.356862 0.630837
vt 0.356862 0.730310
vt 0.000000 0.730310
vt 0.000000 0.630837
vt 0.000000 0.591617
vt 0.000000 0.520371
vt 0.000000 0.483475
vt 0.047762 0.365155
vt 0.000000 0.365155
vt 0.000000 0.269690
vt 0.047762 0.269690
vt 0.115633 0.269690
vt 0.151691 0.269690
vt 0.221319 0.269690
vt 0.259648 0.269690
vt 0.356863 0.269690
vt 0.356863 0.365155
vt 0.259648 0.365155
vt 0.221319 0.365155
vt 0.151691 0.365155
vt 0.115633 0.365155
vt 0.906703 0.265682
vt 0.610936 0.226462
vt 0.356863 0.226462
vt 0.356863 0.155216
vt 0.356863 0.118320
vt 0.356863 0.048871
vt 0.610936 0.048871
vt 0.610936 0.118320
vt 0.610936 0.155216
vt 0.710616 0.118320
vt 0.710616 0.155216
vt 0.710616 0.048871
vt 0.710616 0.000000
vt 0.356863 0.000000
vt 0.610936 0.000000
vt 0.356863 0.591617
vt 0.356863 0.520371
vt 0.620428 0.520371
vt 0.620428 0.591617
vt 0.356863 0.483475
vt 0.620428 0.483475
vt 0.000000 0.000000
vt 0.047761 0.000000
vt 0.115633 0.000000
vt 0.151691 0.000000
vt 0.221319 0.000000
vt 0.259648 0.000000
vt 0.356862 0.000000
vt 0.436760 1.000000
vt 0.398431 1.000000
vt 0.398431 0.730310
vt 0.436760 0.730310
vt 0.472818 1.000000
vt 0.436760 1.000000
vt 0.436760 0.730310
vt 0.472818 0.730310
vt 0.710616 0.226462
vt 0.710616 0.265682
vt 0.710616 0.155216
vt 0.813405 0.155216
vt 0.099680 0.730310
vt 0.099680 1.000000
vt 0.000000 1.000000
vt 0.000000 0.730310
vt 0.199360 0.730310
vt 0.199360 1.000000
vt 0.099680 1.000000
vt 0.099680 0.730310
vt 0.000000 0.000000
vt 0.000000 0.000000
vt 0.000000 0.000000
vt 0.000000 0.000000
vt 0.479402 0.832159
vt 0.479402 0.730310
vt 0.485985 0.730310
vt 0.485985 0.832159
vt 0.298896 0.730310
vt 0.298896 1.000000
vt 0.199360 1.000000
vt 0.199361 0.730310
vt 0.974382 0.634845
vt 0.974382 0.904535
vt 0.967799 0.904535
vt 0.967799 0.634845
vt 0.479402 0.730310
vt 0.479402 0.832159
vt 0.472818 0.832159
vt 0.472818 0.730310
vt 0.974382 0.365155
vt 0.974382 0.634845
vt 0.967799 0.634845
vt 0.967799 0.365155
vt 0.398431 0.730310
vt 0.398431 1.000000
vt 0.298896 1.000000
vt 0.298896 0.730310
vt 0.813405 0.226462
vt 0.813405 0.118320
vt 0.906703 0.118320
vt 0.906703 0.155216
vt 0.906703 0.226462
vn 0.0000 1.0000 0.0000
vn -1.0000 0.0000 0.0000
vn 0.0000 0.0000 1.0000
vn 0.0000 -1.0000 0.0000
vn 0.0000 0.0000 -1.0000
vn 1.0000 0.0000 0.0000
usemtl Material
s off
f 10/1/1 16/2/1 15/3/1 3/4/1
f 48/5/2 11/6/2 5/7/2 44/8/2
f 7/9/3 20/10/3 14/11/3 4/12/3
f 6/13/4 2/14/4 12/15/4 9/16/4
f 13/17/4 12/18/4 4/19/4 14/20/4
f 1/21/1 5/22/1 11/23/1 10/24/1
f 43/25/2 15/26/2 16/27/2 49/28/2
f 19/29/3 9/30/3 13/31/3 21/32/3
f 14/33/2 20/34/2 21/35/2 13/36/2
f 44/37/5 5/38/5 1/39/5 46/40/5 39/41/5 32/42/5 25/43/5 8/44/5 2/45/5 6/46/5 17/47/5 22/48/5 30/49/5 37/50/5
f 46/51/6 1/52/6 10/53/6 47/54/6 40/55/6 33/56/6 26/57/6 18/58/6 12/59/6 2/60/6 8/61/6 25/62/6 32/63/6 39/64/6
f 9/30/2 19/29/2 17/65/2 6/13/2
f 24/66/3 20/10/3 7/9/3 23/67/3 31/68/3 38/69/3 45/70/3 43/71/3 36/72/3 29/73/3
f 29/73/3 36/72/3 57/74/3 56/75/3
f 11/6/3 48/5/3 49/76/3 16/77/3
f 3/78/3 15/79/3 43/71/3 45/70/3
f 24/80/2 29/81/2 35/82/2 28/83/2 21/35/2 20/34/2
f 36/84/2 43/25/2 49/28/2 42/85/2 35/82/2 29/81/2
f 47/54/6 10/53/6 3/86/6 45/87/6 38/88/6 31/89/6 23/90/6 7/91/6 4/92/6 12/59/6 18/58/6 26/57/6 33/56/6 40/55/6
f 52/93/2 53/94/2 50/95/2 51/96/2
f 56/97/2 57/98/2 54/99/2 55/100/2
f 20/10/3 24/66/3 53/101/3 52/102/3
f 35/103/3 49/76/3 48/5/3 34/104/3
f 21/105/4 20/106/4 52/107/4 51/108/4
f 21/32/3 35/103/3 34/104/3 19/29/3
f 35/109/4 29/110/4 56/111/4 55/112/4
f 49/113/3 43/114/3 58/115/3 59/116/3
f 60/117/3 58/118/3 62/119/3 64/120/3
f 62/121/1 63/122/1 65/123/1 64/124/1
f 61/125/2 60/126/2 64/127/2 65/128/2
f 59/129/5 61/130/5 65/131/5 63/132/5
f 58/133/6 59/134/6 63/135/6 62/136/6
f 59/137/4 58/138/4 60/139/4 61/140/4
f 19/29/2 27/141/2 34/104/2 41/142/2 48/5/2 44/8/2 37/143/2 30/144/2 22/145/2 17/65/2
